<?xml version="1.0" standalone="no"?>
<!DOCTYPE svg PUBLIC "-//W3C//DTD SVG 20010904//EN"
 "http://www.w3.org/TR/2001/REC-SVG-20010904/DTD/svg10.dtd">
<svg version="1.0" xmlns="http://www.w3.org/2000/svg"
 width="260.000000pt" height="260.000000pt" viewBox="0 0 260.000000 260.000000"
 preserveAspectRatio="xMidYMid meet">
<metadata>
Created by potrace 1.14, written by Peter Selinger 2001-2017
</metadata>
<g transform="translate(0.000000,260.000000) scale(0.100000,-0.100000)"
fill="#000000" stroke="none">
<path d="M765 1926 c-106 -34 -188 -105 -231 -199 -26 -56 -29 -72 -29 -167 0
-96 2 -110 30 -163 17 -34 52 -79 82 -107 51 -46 199 -130 229 -130 71 0 -47
-180 -207 -316 -99 -85 -106 -102 -63 -153 17 -21 35 -31 53 -31 63 0 349 240
466 391 98 126 157 260 174 398 19 149 -21 270 -127 378 -81 84 -134 107 -247
110 -54 2 -106 -3 -130 -11z"/>
<path d="M1653 1926 c-104 -34 -186 -106 -231 -205 -21 -46 -26 -71 -26 -146
-1 -49 5 -109 12 -132 31 -102 131 -198 268 -258 43 -19 80 -41 82 -50 9 -39
-104 -182 -223 -285 -105 -90 -110 -103 -69 -157 37 -49 66 -44 160 23 330
236 516 497 540 755 12 133 -26 241 -120 345 -29 33 -78 73 -107 89 -47 26
-66 30 -149 32 -61 2 -110 -2 -137 -11z"/>
</g>
</svg>
